<?xml version="1.0" standalone="no"?>
<!DOCTYPE svg PUBLIC "-//W3C//DTD SVG 1.1//EN" "http://www.w3.org/Graphics/SVG/1.1/DTD/svg11.dtd" >
<svg xmlns="http://www.w3.org/2000/svg">
<metadata></metadata>
<defs>
<font id="bebas_neueregular" horiz-adv-x="792" >
<font-face units-per-em="2048" ascent="1536" descent="-512" />
<missing-glyph horiz-adv-x="317" />
<glyph horiz-adv-x="0" />
<glyph unicode="&#xd;" horiz-adv-x="317" />
<glyph horiz-adv-x="0" />
<glyph horiz-adv-x="0" />
<glyph unicode=" "  horiz-adv-x="317" />
<glyph unicode="&#x09;" horiz-adv-x="317" />
<glyph unicode="&#xa0;" horiz-adv-x="317" />
<glyph unicode="!" horiz-adv-x="323" d="M82 760v674h160v-674l-21 -443h-119zM84 0v199h154v-199h-154z" />
<glyph unicode="&#x22;" horiz-adv-x="542" d="M82 1434h154l-23 -387h-111zM307 1434h154l-23 -387h-110z" />
<glyph unicode="#" horiz-adv-x="843" d="M47 432l12 115h117l45 420h-121l13 114h118l37 353h131l-37 -353h189l37 353h131l-37 -353h115l-13 -114h-114l-43 -420h114l-12 -115h-115l-45 -432h-131l45 432h-186l-47 -432h-131l47 432h-119zM307 547h189l43 420h-187z" />
<glyph unicode="$" d="M74 358v88h149v-98q0 -98 41 -150.5t127 -52.5q88 0 128 52.5t40 150.5q0 80 -36 137.5t-89 104.5t-114.5 91t-114.5 98.5t-89 125t-36 170.5q0 147 61.5 239.5t190.5 112.5v115h131v-115q131 -18 192.5 -112t61.5 -240v-39h-150v49q0 96 -40 150.5t-126 54.5t-124.5 -54 t-38.5 -151q0 -80 35.5 -137t89 -104t116 -91t115.5 -98.5t89 -125t36 -171.5q0 -145 -62.5 -240t-193.5 -114v-108h-131v108q-135 18 -196.5 112.5t-61.5 241.5z" />
<glyph unicode="%" horiz-adv-x="1261" d="M74 758v452q0 104 50.5 168t154.5 64t154 -63.5t50 -168.5v-452q0 -104 -50 -168t-154 -64t-154.5 63.5t-50.5 168.5zM176 750q0 -59 23.5 -94t79.5 -35q53 0 77.5 34.5t24.5 94.5v467q0 59 -24.5 95t-77.5 36q-55 0 -79 -36t-24 -95v-467zM295 0l565 1434h96l-565 -1434 h-96zM778 225v451q0 104 50.5 166.5t154.5 62.5q106 0 155.5 -62.5t49.5 -166.5v-451q0 -104 -49 -167.5t-156 -63.5q-104 0 -154.5 63.5t-50.5 167.5zM881 217q0 -59 24.5 -95t77.5 -36t77.5 36t24.5 95v465q0 59 -24.5 94t-77.5 35t-77.5 -35t-24.5 -94v-465z" />
<glyph unicode="&#x26;" horiz-adv-x="835" d="M84 315v140q0 106 40 185t130 114q-88 31 -129 107.5t-41 185.5v32q0 172 83 263.5t255 91.5h231v-146h-227q-92 0 -138 -49t-46 -154v-71q0 -92 44 -141.5t122 -53.5h161v160h158v-160h70v-143h-70v-494q0 -53 4 -97t27 -85h-162q-12 27 -18.5 52.5t-8.5 72.5 q-31 -70 -89 -104.5t-136 -34.5q-135 0 -197.5 88t-62.5 241zM242 328q0 -96 41 -146.5t125 -50.5q70 0 113.5 40t47.5 124v381h-149q-178 -6 -178 -217v-131z" />
<glyph unicode="'" horiz-adv-x="309" d="M78 1434h153l-22 -387h-111z" />
<glyph unicode="(" horiz-adv-x="493" d="M92 315v803q0 162 65.5 239t229.5 77h57v-131h-47q-84 0 -115.5 -45.5t-31.5 -139.5v-803q0 -94 30.5 -139t116.5 -45h47v-131h-57q-164 0 -229.5 77t-65.5 238z" />
<glyph unicode=")" horiz-adv-x="493" d="M49 0v131h47q86 0 117 45t31 139v803q0 94 -32 139.5t-116 45.5h-47v131h57q164 0 229.5 -77t65.5 -239v-803q0 -162 -65.5 -238.5t-229.5 -76.5h-57z" />
<glyph unicode="*" horiz-adv-x="808" d="M37 1110l39 125l299 -131l-37 323h131l-35 -323l299 129l39 -125l-319 -64l217 -239l-105 -78l-162 285l-159 -285l-105 78l215 239z" />
<glyph unicode="+" horiz-adv-x="802" d="M61 659v115h283v285h115v-285h282v-115h-282v-288h-115v288h-283z" />
<glyph unicode="," horiz-adv-x="327" d="M92 0v199h154v-185l-80 -194h-66l52 180h-60z" />
<glyph unicode="-" horiz-adv-x="542" d="M76 645v143h391v-143h-391z" />
<glyph unicode="." horiz-adv-x="317" d="M82 0v199h154v-199h-154z" />
<glyph unicode="/" horiz-adv-x="770" d="M33 0l565 1434h139l-565 -1434h-139z" />
<glyph unicode="0" horiz-adv-x="796" d="M70 348v739q0 166 80.5 263.5t246.5 97.5t248 -97.5t82 -263.5v-739q0 -166 -82 -264t-248 -98t-246.5 98t-80.5 264zM227 338q0 -98 42 -152.5t128 -54.5q88 0 129 54.5t41 152.5v758q0 98 -41 153.5t-129 55.5q-86 0 -128 -55.5t-42 -153.5v-758z" />
<glyph unicode="1" horiz-adv-x="692" d="M176 1112v131q57 2 98 18.5t69 42t46.5 59.5t32.5 71h110v-1434h-157v1174q-41 -25 -91.5 -41.5t-107.5 -20.5z" />
<glyph unicode="2" d="M82 0v123q0 115 36 203t90 160.5t116.5 137t117 132t90 145.5t35.5 178q0 111 -39 168.5t-129 57.5q-88 0 -128 -57.5t-40 -153.5v-127h-149v116q0 166 77.5 265.5t243.5 99.5q168 0 246 -98.5t78 -264.5q0 -109 -36 -195.5t-90 -161.5t-116.5 -140.5t-117 -131t-91 -136 t-36.5 -152.5v-23h471v-145h-629z" />
<glyph unicode="3" d="M74 348v98h149v-108q0 -98 41 -152.5t127 -54.5q88 0 128 55.5t40 165.5v111q0 207 -180 213h-86v143h94q80 4 126 53.5t46 143.5v65q0 111 -40 167.5t-128 56.5q-86 0 -127 -55.5t-41 -153.5v-74h-149v65q0 166 77.5 263.5t243.5 97.5t245 -97.5t79 -263.5v-36 q0 -111 -44 -187t-130 -108q92 -35 133 -112t41 -185v-111q0 -166 -79 -264t-245 -98q-164 0 -242.5 99t-78.5 263z" />
<glyph unicode="4" horiz-adv-x="819" d="M45 289v145l444 1000h175v-1000h114v-145h-114v-289h-156v289h-463zM193 434h315v701z" />
<glyph unicode="5" d="M76 348v96h149v-106q0 -98 41 -152.5t127 -54.5t127 54.5t41 152.5v278q0 98 -41 152.5t-127 54.5q-66 0 -108.5 -37.5t-53.5 -115.5v-33h-149l39 797h565v-144h-422l-22 -440q70 119 213 119q139 0 202.5 -93.5t63.5 -246.5v-281q0 -164 -80 -263t-244 -99t-242.5 99 t-78.5 263z" />
<glyph unicode="6" horiz-adv-x="796" d="M72 348v731q0 172 78.5 270.5t250.5 98.5q166 0 245 -96.5t79 -261.5v-27h-150v37q0 98 -40.5 151.5t-128.5 53.5q-92 0 -133.5 -57.5t-41.5 -174.5v-321q29 74 87.5 113.5t144.5 39.5q139 0 202.5 -92t63.5 -248v-217q0 -166 -81 -264t-247 -98t-247.5 98t-81.5 264z M231 338q0 -98 41 -152.5t129 -54.5q86 0 128 54.5t42 152.5v215q0 98 -42 152.5t-128 54.5q-88 0 -129 -54.5t-41 -152.5v-215z" />
<glyph unicode="7" d="M72 1290v144h649v-140l-369 -1294h-159l366 1290h-487z" />
<glyph unicode="8" horiz-adv-x="802" d="M63 344v107q0 111 37 188.5t129 114.5q-88 35 -127 109.5t-39 185.5v45q0 166 86 260t252 94t252 -94t86 -260v-45q0 -111 -38.5 -187t-125.5 -108q90 -35 127 -115t37 -188v-107q0 -166 -85 -262t-253 -96t-253 96t-85 262zM221 348q0 -111 47 -164t133 -53t132.5 53.5 t48.5 163.5v121q-1 207 -181 207t-180 -207v-121zM221 1020q0 -104 47 -152.5t133 -48.5t133.5 48t47.5 153v70q0 111 -47.5 163t-133.5 52t-133 -52.5t-47 -162.5v-70z" />
<glyph unicode="9" horiz-adv-x="796" d="M68 868v219q0 166 80.5 263.5t246.5 97.5t248 -97.5t82 -263.5v-731q0 -170 -80 -270t-252 -100q-166 0 -244.5 97t-78.5 263v27h149v-37q0 -98 42 -151.5t128 -53.5q92 0 134 57.5t42 171.5v322q-59 -152 -231 -152q-139 0 -202.5 91.5t-63.5 246.5zM225 881 q0 -98 42 -152.5t128 -54.5q88 0 129 54t41 153v215q0 98 -41 152.5t-129 54.5q-86 0 -128 -54.5t-42 -152.5v-215z" />
<glyph unicode=":" horiz-adv-x="317" d="M82 0v199h154v-199h-154zM82 780v199h154v-199h-154z" />
<glyph unicode=";" horiz-adv-x="327" d="M92 0v199h154v-185l-80 -194h-66l52 180h-60zM92 780v199h154v-199h-154z" />
<glyph unicode="&#x3c;" horiz-adv-x="784" d="M68 659v115l634 260v-116l-485 -201l485 -201v-117z" />
<glyph unicode="=" horiz-adv-x="716" d="M76 528v115h565v-115h-565zM76 819v115h565v-115h-565z" />
<glyph unicode="&#x3e;" horiz-adv-x="784" d="M82 399v117l485 201l-485 201v116l635 -260v-115z" />
<glyph unicode="?" horiz-adv-x="739" d="M55 967v116q0 82 18.5 148.5t57.5 115t99.5 75t142.5 26.5q166 0 242.5 -98.5t76.5 -264.5q0 -86 -21.5 -151.5t-52 -119.5t-68.5 -100t-68.5 -93.5t-52 -101.5t-21.5 -122q0 -37 10 -78h-144q-4 18 -7 38t-3 44q0 78 19.5 137.5t50.5 108.5t64.5 94t64.5 95.5t50 112 t19 145.5q0 98 -37.5 154.5t-125.5 56.5t-126 -57.5t-38 -153.5v-127h-150zM268 0v199h152v-199h-152z" />
<glyph unicode="@" horiz-adv-x="1411" d="M59 590q0 182 44 348t136.5 292t232 200.5t329.5 74.5q154 0 261 -45t172.5 -124t95.5 -186.5t30 -234.5q0 -152 -32 -270.5t-84 -200.5t-119.5 -125t-139.5 -43q-152 0 -162 140q-31 -68 -83 -105t-128 -35q-115 2 -158.5 89.5t-29.5 224.5l22 205q14 141 77 222t177 77 q70 0 114 -35t63 -101l14 127h139l-61 -587q-4 -35 8 -61.5t51 -26.5q59 0 99 50t65 124.5t35 163t10 163.5q0 106 -25.5 193.5t-80 149t-137.5 94t-197 32.5q-154 0 -266.5 -60t-187.5 -166.5t-110.5 -253t-35.5 -318.5q0 -133 30.5 -238.5t94 -178.5t162 -112t231.5 -39 q109 0 207 27t196 102l-12 -141q-94 -66 -192.5 -88.5t-206.5 -22.5q-170 0 -292 50.5t-201 141.5t-117 220t-38 287zM565 596q-10 -80 17.5 -131t99.5 -53t109.5 48t48.5 134l20 197q8 72 -21.5 117.5t-97.5 45.5q-72 2 -109.5 -44t-47.5 -130z" />
<glyph unicode="A" horiz-adv-x="864" d="M41 0l274 1434h232l274 -1434h-159l-56 289h-362l-56 -289h-147zM264 426h320l-162 827z" />
<glyph unicode="B" horiz-adv-x="802" d="M82 0v1434h321q168 0 240 -79t72 -239v-67q0 -115 -37 -185.5t-131 -99.5q104 -29 148 -109t44 -198v-121q0 -162 -79.5 -249t-247.5 -87h-330zM242 145h170q170 0 170 195v127q0 121 -48.5 167t-152.5 46h-139v-535zM242 825h123q96 0 144 39t48 152v84q0 96 -36 142 t-122 46h-157v-463z" />
<glyph unicode="C" horiz-adv-x="778" d="M70 346v741q0 82 19.5 149t59 114t100 72.5t142.5 25.5q166 0 245 -98.5t79 -262.5v-129h-152v138q0 98 -40 152.5t-128 54.5q-86 0 -127 -54.5t-41 -152.5v-758q0 -98 41 -152.5t127 -54.5q88 0 128 54.5t40 152.5v186h152v-178q0 -164 -79 -262t-245 -98 q-164 0 -242.5 98t-78.5 262z" />
<glyph unicode="D" horiz-adv-x="811" d="M82 0v1434h336q168 0 246.5 -95.5t78.5 -261.5v-723q0 -166 -78.5 -260t-246.5 -94h-336zM242 145h174q86 0 128 52.5t42 150.5v737q0 98 -42 150.5t-130 52.5h-172v-1143z" />
<glyph unicode="E" horiz-adv-x="737" d="M82 0v1434h590v-146h-430v-489h350v-144h-350v-510h430v-145h-590z" />
<glyph unicode="F" horiz-adv-x="696" d="M82 0v1434h569v-146h-409v-522h329v-145h-329v-621h-160z" />
<glyph unicode="G" horiz-adv-x="784" d="M70 346v741q0 82 19.5 149t59 114t100 72.5t142.5 25.5q166 0 245 -98.5t79 -262.5v-122h-152v131q0 98 -40 152.5t-128 54.5q-86 0 -127 -54.5t-41 -152.5v-758q0 -98 41 -152.5t127 -54.5q88 0 128 54.5t40 152.5v287h-147v143h299v-422q0 -164 -79 -262t-245 -98 q-164 0 -242.5 98t-78.5 262z" />
<glyph unicode="H" horiz-adv-x="835" d="M82 0v1434h160v-646h352v646h160v-1434h-160v645h-352v-645h-160z" />
<glyph unicode="I" horiz-adv-x="323" d="M82 0v1434h160v-1434h-160z" />
<glyph unicode="J" horiz-adv-x="522" d="M41 0v145q20 -2 40.5 -2h39.5q78 4 123 48.5t45 152.5v1090h157v-1080q0 -100 -23.5 -167.5t-64.5 -109.5t-97 -59.5t-120 -19.5q-29 0 -51 -1h-9q-18 0 -40 3z" />
<glyph unicode="K" horiz-adv-x="837" d="M82 0v1434h160v-693l381 693h161l-362 -654l375 -780h-164l-307 623l-84 -142v-481h-160z" />
<glyph unicode="L" horiz-adv-x="690" d="M82 0v1434h160v-1289h409v-145h-569z" />
<glyph unicode="M" horiz-adv-x="1071" d="M80 0v1434h223l236 -1145l227 1145h223v-1434h-151v1153l-228 -1151h-153l-238 1141v-1143h-139z" />
<glyph unicode="N" horiz-adv-x="837" d="M80 0v1434h203l331 -1037v1037h142v-1434h-166l-367 1159v-1159h-143z" />
<glyph unicode="O" horiz-adv-x="796" d="M70 346v741q0 166 80.5 263.5t246.5 97.5t248 -97.5t82 -263.5v-741q0 -164 -82 -262t-248 -98t-246.5 98t-80.5 262zM227 338q0 -98 42 -152.5t128 -54.5q88 0 129 54.5t41 152.5v758q0 98 -41 152.5t-129 54.5q-86 0 -128 -54.5t-42 -152.5v-758z" />
<glyph unicode="P" horiz-adv-x="765" d="M82 0v1434h313q170 0 246 -93.5t76 -257.5v-172q0 -172 -81 -259t-253 -87h-141v-565h-160zM242 709h141q90 0 133 44t43 148v191q0 98 -38 147t-126 49h-153v-579z" />
<glyph unicode="Q" horiz-adv-x="823" d="M70 346v741q0 166 80.5 263.5t246.5 97.5t248 -97.5t82 -263.5v-741q0 -137 -55 -223q12 -27 32.5 -36t55.5 -9h20v-141h-26q-131 0 -183 92q-35 -20 -77.5 -31.5t-96.5 -11.5q-166 0 -246.5 98t-80.5 262zM227 338q0 -98 42 -152.5t128 -54.5q88 0 129 54.5t41 152.5 v758q0 98 -41 152.5t-129 54.5q-86 0 -128 -54.5t-42 -152.5v-758z" />
<glyph unicode="R" horiz-adv-x="806" d="M82 0v1434h319q170 0 245 -84t75 -244v-117q0 -119 -43 -192.5t-135 -102.5q98 -29 139 -105.5t41 -193.5v-223q0 -47 4 -91t25 -81h-162q-14 31 -20.5 66.5t-6.5 107.5v225q0 121 -54 167t-155 46h-112v-612h-160zM242 758h118q96 0 149.5 40t53.5 156v138q0 98 -38 147 t-128 49h-155v-530z" />
<glyph unicode="S" horiz-adv-x="761" d="M59 344v82h150v-90q0 -98 41 -151.5t127 -53.5t127 53.5t41 151.5q0 80 -36 138t-89 108.5t-114.5 98.5t-115 105.5t-89 130t-35.5 173.5q0 166 77.5 262t239.5 96q164 0 241.5 -97.5t77.5 -260.5v-39h-151v47q0 98 -39 151.5t-125 53.5t-125 -53.5t-39 -149.5 q0 -80 36 -139.5t89 -109.5t115.5 -98t116 -105.5t89.5 -130.5t36 -173q0 -164 -79 -261t-245 -97t-244 97t-78 261z" />
<glyph unicode="T" horiz-adv-x="743" d="M27 1288v146h688v-146h-264v-1288h-160v1288h-264z" />
<glyph unicode="U" d="M76 346v1088h157v-1096q0 -98 40 -152.5t128 -54.5q86 0 126 54.5t40 152.5v1096h150v-1088q0 -164 -78 -263t-244 -99q-164 0 -241.5 99t-77.5 263z" />
<glyph unicode="V" horiz-adv-x="856" d="M41 1434h162l233 -1248l232 1248h147l-268 -1434h-236z" />
<glyph unicode="W" horiz-adv-x="1193" d="M47 1434h156l168 -1221l159 1219h158l158 -1221l162 1223h139l-195 -1434h-211l-137 973l-141 -973h-219z" />
<glyph unicode="X" horiz-adv-x="890" d="M47 0l289 739l-270 695h165l222 -574l223 574h149l-268 -695l287 -739h-168l-238 618l-239 -618h-152z" />
<glyph unicode="Y" horiz-adv-x="831" d="M33 1434h166l223 -705l225 705h152l-305 -920v-514h-158v514z" />
<glyph unicode="Z" horiz-adv-x="776" d="M59 0v143l492 1145h-469v146h633v-144l-494 -1145h490v-145h-652z" />
<glyph unicode="[" horiz-adv-x="495" d="M92 0v1434h346v-131h-188v-1172h188v-131h-346z" />
<glyph unicode="\" horiz-adv-x="770" d="M33 1434h139l565 -1434h-139z" />
<glyph unicode="]" horiz-adv-x="495" d="M57 0v131h187v1172h-187v131h346v-1434h-346z" />
<glyph unicode="^" horiz-adv-x="825" d="M55 799l299 635h117l299 -635h-129l-229 489l-228 -489h-129z" />
<glyph unicode="_" horiz-adv-x="1038" d="M27 -20h977v-117h-977v117z" />
<glyph unicode="`" horiz-adv-x="456" d="M88 1737h166l141 -211h-116z" />
<glyph unicode="a" horiz-adv-x="864" d="M41 0l274 1434h232l274 -1434h-159l-56 289h-362l-56 -289h-147zM264 426h320l-162 827z" />
<glyph unicode="b" horiz-adv-x="802" d="M82 0v1434h321q168 0 240 -79t72 -239v-67q0 -115 -37 -185.5t-131 -99.5q104 -29 148 -109t44 -198v-121q0 -162 -79.5 -249t-247.5 -87h-330zM242 145h170q170 0 170 195v127q0 121 -48.5 167t-152.5 46h-139v-535zM242 825h123q96 0 144 39t48 152v84q0 96 -36 142 t-122 46h-157v-463z" />
<glyph unicode="c" horiz-adv-x="778" d="M70 346v741q0 82 19.5 149t59 114t100 72.5t142.5 25.5q166 0 245 -98.5t79 -262.5v-129h-152v138q0 98 -40 152.5t-128 54.5q-86 0 -127 -54.5t-41 -152.5v-758q0 -98 41 -152.5t127 -54.5q88 0 128 54.5t40 152.5v186h152v-178q0 -164 -79 -262t-245 -98 q-164 0 -242.5 98t-78.5 262z" />
<glyph unicode="d" horiz-adv-x="811" d="M82 0v1434h336q168 0 246.5 -95.5t78.5 -261.5v-723q0 -166 -78.5 -260t-246.5 -94h-336zM242 145h174q86 0 128 52.5t42 150.5v737q0 98 -42 150.5t-130 52.5h-172v-1143z" />
<glyph unicode="e" horiz-adv-x="737" d="M82 0v1434h590v-146h-430v-489h350v-144h-350v-510h430v-145h-590z" />
<glyph unicode="f" horiz-adv-x="696" d="M82 0v1434h569v-146h-409v-522h329v-145h-329v-621h-160z" />
<glyph unicode="g" horiz-adv-x="784" d="M70 346v741q0 82 19.5 149t59 114t100 72.5t142.5 25.5q166 0 245 -98.5t79 -262.5v-122h-152v131q0 98 -40 152.5t-128 54.5q-86 0 -127 -54.5t-41 -152.5v-758q0 -98 41 -152.5t127 -54.5q88 0 128 54.5t40 152.5v287h-147v143h299v-422q0 -164 -79 -262t-245 -98 q-164 0 -242.5 98t-78.5 262z" />
<glyph unicode="h" horiz-adv-x="835" d="M82 0v1434h160v-646h352v646h160v-1434h-160v645h-352v-645h-160z" />
<glyph unicode="i" horiz-adv-x="323" d="M82 0v1434h160v-1434h-160z" />
<glyph unicode="j" horiz-adv-x="522" d="M41 0v145q20 -2 40.5 -2h39.5q78 4 123 48.5t45 152.5v1090h157v-1080q0 -100 -23.5 -167.5t-64.5 -109.5t-97 -59.5t-120 -19.5q-29 0 -51 -1h-9q-18 0 -40 3z" />
<glyph unicode="k" horiz-adv-x="837" d="M82 0v1434h160v-693l381 693h161l-362 -654l375 -780h-164l-307 623l-84 -142v-481h-160z" />
<glyph unicode="l" horiz-adv-x="690" d="M82 0v1434h160v-1289h409v-145h-569z" />
<glyph unicode="m" horiz-adv-x="1071" d="M80 0v1434h223l236 -1145l227 1145h223v-1434h-151v1153l-228 -1151h-153l-238 1141v-1143h-139z" />
<glyph unicode="n" horiz-adv-x="837" d="M80 0v1434h203l331 -1037v1037h142v-1434h-166l-367 1159v-1159h-143z" />
<glyph unicode="o" horiz-adv-x="796" d="M70 346v741q0 166 80.5 263.5t246.5 97.5t248 -97.5t82 -263.5v-741q0 -164 -82 -262t-248 -98t-246.5 98t-80.5 262zM227 338q0 -98 42 -152.5t128 -54.5q88 0 129 54.5t41 152.5v758q0 98 -41 152.5t-129 54.5q-86 0 -128 -54.5t-42 -152.5v-758z" />
<glyph unicode="p" horiz-adv-x="759" d="M82 0v1434h313q170 0 246 -93.5t76 -257.5v-172q0 -172 -81 -259t-253 -87h-141v-565h-160zM242 709h141q90 0 133 44t43 148v191q0 98 -38 147t-126 49h-153v-579z" />
<glyph unicode="q" horiz-adv-x="802" d="M70 346v741q0 166 80.5 263.5t246.5 97.5t248 -97.5t82 -263.5v-741q0 -137 -55 -223q12 -27 32.5 -36t55.5 -9h20v-141h-26q-131 0 -183 92q-35 -20 -77.5 -31.5t-96.5 -11.5q-166 0 -246.5 98t-80.5 262zM227 338q0 -98 42 -152.5t128 -54.5q88 0 129 54.5t41 152.5 v758q0 98 -41 152.5t-129 54.5q-86 0 -128 -54.5t-42 -152.5v-758z" />
<glyph unicode="r" horiz-adv-x="806" d="M82 0v1434h319q170 0 245 -84t75 -244v-117q0 -119 -43 -192.5t-135 -102.5q98 -29 139 -105.5t41 -193.5v-223q0 -47 4 -91t25 -81h-162q-14 31 -20.5 66.5t-6.5 107.5v225q0 121 -54 167t-155 46h-112v-612h-160zM242 758h118q96 0 149.5 40t53.5 156v138q0 98 -38 147 t-128 49h-155v-530z" />
<glyph unicode="s" horiz-adv-x="761" d="M59 344v82h150v-90q0 -98 41 -151.5t127 -53.5t127 53.5t41 151.5q0 80 -36 138t-89 108.5t-114.5 98.5t-115 105.5t-89 130t-35.5 173.5q0 166 77.5 262t239.5 96q164 0 241.5 -97.5t77.5 -260.5v-39h-151v47q0 98 -39 151.5t-125 53.5t-125 -53.5t-39 -149.5 q0 -80 36 -139.5t89 -109.5t115.5 -98t116 -105.5t89.5 -130.5t36 -173q0 -164 -79 -261t-245 -97t-244 97t-78 261z" />
<glyph unicode="t" horiz-adv-x="737" d="M25 1288v146h686v-146h-265v-1288h-157v1288h-264z" />
<glyph unicode="u" d="M76 346v1088h157v-1096q0 -98 40 -152.5t128 -54.5q86 0 126 54.5t40 152.5v1096h150v-1088q0 -164 -78 -263t-244 -99q-164 0 -241.5 99t-77.5 263z" />
<glyph unicode="v" horiz-adv-x="856" d="M41 1434h162l233 -1248l232 1248h147l-268 -1434h-236z" />
<glyph unicode="w" horiz-adv-x="1193" d="M47 1434h156l168 -1221l159 1219h158l158 -1221l162 1223h139l-195 -1434h-211l-137 973l-141 -973h-219z" />
<glyph unicode="x" horiz-adv-x="890" d="M47 0l289 739l-270 695h165l222 -574l223 574h149l-268 -695l287 -739h-168l-238 618l-239 -618h-152z" />
<glyph unicode="y" horiz-adv-x="831" d="M33 1434h166l223 -705l225 705h152l-305 -920v-514h-158v514z" />
<glyph unicode="z" horiz-adv-x="776" d="M59 0v143l492 1145h-469v146h633v-144l-494 -1145h490v-145h-652z" />
<glyph unicode="{" horiz-adv-x="526" d="M41 649v135q76 6 97.5 41t25.5 111l14 278q8 104 57.5 162t147.5 58h94v-131h-39q-66 0 -89 -38t-27 -120l-13 -232q-2 -33 -7 -63.5t-19.5 -56t-40 -46t-66.5 -30.5q41 -10 66.5 -30.5t40 -46.5t19.5 -56.5t7 -63.5l13 -231q4 -82 27.5 -120t88.5 -38h39v-131h-94 q-98 0 -147.5 57.5t-57.5 161.5l-14 279q-4 76 -25.5 110.5t-97.5 40.5z" />
<glyph unicode="|" horiz-adv-x="763" d="M324 -90v1614h131v-1614h-131z" />
<glyph unicode="}" horiz-adv-x="526" d="M49 0v131h39q66 0 89.5 38t27.5 120l12 231q2 33 7 63.5t19.5 56.5t40 46.5t66.5 30.5q-41 10 -66.5 30.5t-40 46t-19.5 56.5t-7 63l-12 232q-4 82 -27.5 120t-89.5 38h-39v131h94q96 0 146.5 -57.5t56.5 -162.5l16 -278q2 -37 7.5 -64.5t17.5 -46t35.5 -29t60.5 -12.5 v-135q-37 -4 -60.5 -13t-35.5 -27.5t-17 -46t-8 -64.5l-16 -279q-6 -104 -56 -161.5t-147 -57.5h-94z" />
<glyph unicode="~" horiz-adv-x="811" d="M37 678q59 90 109.5 126t109.5 36q43 0 84 -19.5t79 -43t73.5 -43t70.5 -19.5q39 0 66.5 27.5t66.5 84.5l78 -77q-57 -88 -105 -122t-106 -36q-43 0 -83 19.5t-77.5 43t-73.5 44t-73 20.5q-41 0 -70.5 -27.5t-70.5 -87.5z" />
<glyph unicode="&#xa1;" horiz-adv-x="323" d="M82 0v633l20 483h119l21 -483v-633h-160zM84 1237v197h154v-197h-154z" />
<glyph unicode="&#xa2;" d="M76 436v561q0 145 61.5 240.5t192.5 114.5v102h131v-100q135 -16 197.5 -109.5t62.5 -240.5v-82h-150v90q0 98 -41 150t-127 52q-88 0 -127.5 -54t-39.5 -152v-582q0 -96 39.5 -150.5t127.5 -54.5q86 0 127 53.5t41 151.5v137h150v-127q0 -147 -62.5 -242.5 t-197.5 -111.5v-102h-131v102q-131 18 -192.5 113.5t-61.5 240.5z" />
<glyph unicode="&#xa3;" horiz-adv-x="800" d="M68 0v139q41 16 78.5 46t65.5 71t43 92t11 113h-170v125h150q-18 59 -45 110.5t-51.5 106.5t-42 122.5t-17.5 159.5q0 166 77 264.5t243 98.5q82 0 142 -26.5t99 -75t57.5 -115t18.5 -148.5v-114h-152v123q0 98 -36.5 154.5t-124.5 56.5t-126 -55.5t-38 -153.5 q0 -94 17.5 -162t41 -123t49 -107.5t41.5 -115.5h275v-125h-264q2 -84 -31 -159t-111 -157h453v-145h-653z" />
<glyph unicode="&#xa5;" horiz-adv-x="847" d="M37 1434h166l227 -701l229 701h152l-297 -875h195v-84h-205v-121h205v-82h-205v-272h-160v272h-205v82h205v121h-205v84h193z" />
<glyph unicode="&#xa7;" d="M76 127v84h151v-64q0 -76 47.5 -116.5t118.5 -40.5q66 0 114 35.5t50 107.5q0 53 -35 87t-88 60.5t-115.5 54t-115.5 66.5t-89 98.5t-36 149.5t50 156.5t128 101.5q-37 20 -69.5 45t-57.5 56.5t-39 72.5t-14 95q2 123 88 197.5t233 74.5t231.5 -74t84.5 -196v-56h-152v35 q0 72 -44 115t-116 43q-70 0 -117.5 -36t-47.5 -110q-2 -51 33.5 -84.5t89 -61.5t116 -54.5t115.5 -67.5t89 -100.5t36 -149.5q0 -88 -46 -154.5t-124 -105.5q35 -18 66.5 -42.5t55 -56.5t37 -73t13.5 -92q-2 -121 -89 -195.5t-231 -74.5q-150 0 -235.5 72.5t-85.5 197.5z M229 655q0 -41 15.5 -71.5t41 -54t58.5 -42t68 -32.5q66 16 108.5 67t42.5 125q0 76 -51 120t-121 77q-66 -10 -114 -62.5t-48 -126.5z" />
<glyph unicode="&#xa8;" horiz-adv-x="448" d="M72 1518v184h139v-184h-139zM238 1518v184h139v-184h-139z" />
<glyph unicode="&#xa9;" horiz-adv-x="1519" d="M55 717q0 156 53.5 289t147.5 230t223 151.5t281 54.5t280.5 -54.5t223 -151.5t147.5 -230.5t53 -288.5q0 -158 -53 -290t-147.5 -229.5t-223.5 -151.5t-280 -54q-152 0 -281 54t-223 151.5t-147.5 229.5t-53.5 290zM160 717q0 -133 45 -248t125 -198t190.5 -130 t239.5 -47t239.5 47t190.5 130t125 198t45 248t-45 247.5t-125 197.5t-190.5 130t-239.5 47t-239.5 -47t-190.5 -130t-125 -197.5t-45 -247.5zM528 518v395q0 117 53.5 185.5t170.5 68.5q115 0 169 -68.5t54 -185.5v-61h-107v70q0 66 -27.5 103.5t-86.5 37.5t-87 -38 t-28 -103v-410q0 -66 27.5 -103.5t87.5 -37.5q59 0 86.5 37.5t27.5 103.5v100h107v-94q0 -115 -54.5 -183.5t-168.5 -68.5q-117 0 -170.5 68.5t-53.5 183.5z" />
<glyph unicode="&#xaa;" horiz-adv-x="563" d="M68 877v8q0 74 26.5 120t70.5 73.5t101.5 38.5t118.5 13v103q0 53 -19.5 85t-68.5 32q-102 0 -102 -125v-37h-97v31q0 104 48.5 164.5t154.5 60.5q104 0 145 -61.5t41 -163.5v-535h-88l-6 113q-18 -57 -58 -90t-102 -33q-84 0 -124.5 52t-40.5 151zM70 465v102h417v-102 h-417zM172 885q0 -115 100 -115q53 0 80 34t33 87v162q-100 -4 -156.5 -43t-56.5 -111v-14z" />
<glyph unicode="&#xab;" horiz-adv-x="655" d="M49 719l129 514h146l-129 -514l129 -535h-146zM332 719l131 514h143l-129 -514l129 -535h-143z" />
<glyph unicode="&#xac;" horiz-adv-x="794" d="M61 659v115h672v-391h-115v276h-557z" />
<glyph unicode="&#xad;" horiz-adv-x="542" d="M76 645v143h391v-143h-391z" />
<glyph unicode="&#xae;" horiz-adv-x="1519" d="M55 717q0 156 53.5 289t147.5 230t223 151.5t281 54.5t280.5 -54.5t223 -151.5t147.5 -230.5t53 -288.5q0 -158 -53 -290t-147.5 -229.5t-223.5 -151.5t-280 -54q-152 0 -281 54t-223 151.5t-147.5 229.5t-53.5 290zM160 717q0 -133 45 -248t125 -198t190.5 -130 t239.5 -47t239.5 47t190.5 130t125 198t45 248t-45 247.5t-125 197.5t-190.5 130t-239.5 47t-239.5 -47t-190.5 -130t-125 -197.5t-45 -247.5zM547 279v876h223q117 0 170 -58.5t53 -170.5v-21q0 -80 -27.5 -132t-91.5 -75q66 -23 92.5 -75t26.5 -129v-95q0 -35 3 -64.5 t20 -55.5h-117q-10 23 -13 46t-3 74v95q0 86 -39 116.5t-111 30.5h-76v-362h-110zM657 745h93q63 0 97 29t34 107v32q0 68 -26 104t-91 36h-107v-308z" />
<glyph unicode="&#xaf;" horiz-adv-x="514" d="M41 1524v114h434v-114h-434z" />
<glyph unicode="&#xb0;" horiz-adv-x="448" d="M47 1274q0 37 14.5 68.5t38 56t55 38t68.5 13.5q74 0 126 -51t52 -125t-52 -125t-126 -51q-37 0 -68.5 13t-55 38t-38 56.5t-14.5 68.5zM123 1274q0 -41 29.5 -70.5t70.5 -29.5t72 29.5t31 70.5q0 43 -31 71.5t-72 28.5t-70.5 -28.5t-29.5 -71.5z" />
<glyph unicode="&#xb1;" horiz-adv-x="802" d="M76 371v114h268v203h-268v115h268v256h115v-256h268v-115h-268v-203h268v-114h-651z" />
<glyph unicode="&#xb4;" horiz-adv-x="456" d="M63 1526l144 211h158l-191 -211h-111z" />
<glyph unicode="&#xb5;" horiz-adv-x="815" d="M80 -188v1212h160v-684q0 -98 39.5 -152.5t126.5 -54.5q86 0 125.5 54.5t39.5 152.5v684h160v-1024h-145v147q-29 -74 -84.5 -117.5t-122.5 -43.5q-53 0 -88 26.5t-51 67.5v-268h-160z" />
<glyph unicode="&#xb6;" horiz-adv-x="811" d="M39 911v176q0 164 71.5 255.5t237.5 91.5h369v-1563h-117v1446h-184v-1446h-117l2 696q-135 4 -198.5 96.5t-63.5 247.5z" />
<glyph unicode="&#xb7;" horiz-adv-x="317" d="M82 627v198h154v-198h-154z" />
<glyph unicode="&#xb8;" horiz-adv-x="509" d="M63 -168h109v-14q0 -35 25.5 -47.5t54.5 -14.5q33 0 57.5 15.5t24.5 52.5q0 41 -27.5 53t-68.5 12h-17v129h72v-98q70 0 110.5 -20.5t40.5 -79.5q0 -39 -15 -63.5t-42 -38t-61.5 -18.5t-73.5 -5q-37 0 -72 6t-60.5 19.5t-41 37t-15.5 58.5v16z" />
<glyph unicode="&#xba;" horiz-adv-x="567" d="M74 901v313q0 104 51.5 167t157.5 63t158.5 -62.5t52.5 -167.5v-313q0 -104 -52.5 -166.5t-158.5 -62.5t-157.5 62.5t-51.5 166.5zM76 467v102h418v-102h-418zM176 895q0 -61 25.5 -95t81.5 -34q55 0 80.5 34t25.5 95v326q0 61 -25.5 95t-80.5 34t-81 -34t-26 -95v-326z " />
<glyph unicode="&#xbb;" horiz-adv-x="655" d="M49 184l129 535l-129 514h144l131 -514l-131 -535h-144zM332 184l129 535l-129 514h143l131 -514l-131 -535h-143z" />
<glyph unicode="&#xbf;" horiz-adv-x="739" d="M49 348q0 86 20.5 151.5t52.5 120t68.5 100.5t68.5 93t52.5 100.5t20.5 122.5q0 45 -8 78h141q12 -37 12 -82q0 -78 -20.5 -137t-50 -108.5t-64.5 -94.5t-65.5 -95t-50 -112.5t-19.5 -144.5q0 -98 38 -154.5t126 -56.5t126 57.5t38 153.5v127h151v-117q0 -164 -77 -264 t-242 -100q-166 0 -242 98t-76 264zM319 1235v199h154v-199h-154z" />
<glyph unicode="&#xc0;" horiz-adv-x="864" d="M41 0l274 1434h232l274 -1434h-159l-56 289h-362l-56 -289h-147zM225 1720h164l143 -211h-116zM264 426h320l-162 827z" />
<glyph unicode="&#xc1;" horiz-adv-x="864" d="M41 0l274 1434h232l274 -1434h-159l-56 289h-362l-56 -289h-147zM264 426h320l-162 827zM324 1509l143 211h158l-189 -211h-112z" />
<glyph unicode="&#xc2;" horiz-adv-x="864" d="M41 0l274 1434h232l274 -1434h-159l-56 289h-362l-56 -289h-147zM182 1509l176 205h144l176 -205h-139l-109 121l-108 -121h-140zM264 426h320l-162 827z" />
<glyph unicode="&#xc3;" horiz-adv-x="864" d="M41 0l274 1434h232l274 -1434h-159l-56 289h-362l-56 -289h-147zM180 1573q25 63 64 90t86 29q31 0 56.5 -9.5t47 -21.5t42 -21.5t42.5 -9.5q27 2 46.5 15.5t35.5 46.5l80 -56q-25 -59 -61.5 -87.5t-83.5 -28.5q-31 0 -55.5 9t-46 20.5t-42 20.5t-45.5 9 q-29 0 -49.5 -13.5t-36.5 -47.5zM264 426h320l-162 827z" />
<glyph unicode="&#xc4;" horiz-adv-x="864" d="M41 0l274 1434h232l274 -1434h-159l-56 289h-362l-56 -289h-147zM233 1509v185h140v-185h-140zM264 426h320l-162 827zM487 1509v185h140v-185h-140z" />
<glyph unicode="&#xc5;" horiz-adv-x="864" d="M41 0l274 1434h232l274 -1434h-159l-56 289h-362l-56 -289h-147zM264 426h320l-162 827zM279 1659q0 63 42.5 106t108.5 43q63 0 106.5 -43t43.5 -106q0 -66 -43 -108t-107 -42q-66 0 -108.5 42t-42.5 108zM354 1659q0 -33 21.5 -53.5t54.5 -20.5q31 0 52.5 20.5 t21.5 53.5q0 31 -21.5 52.5t-52.5 21.5q-33 0 -54.5 -21.5t-21.5 -52.5z" />
<glyph unicode="&#xc6;" horiz-adv-x="1198" d="M33 0l446 1434h654v-146h-406v-489h330v-144h-330v-510h406v-145h-564v291h-293l-92 -291h-151zM313 430h256v803z" />
<glyph unicode="&#xc7;" horiz-adv-x="778" d="M70 346v741q0 82 19.5 149t59 114t100 72.5t142.5 25.5q166 0 245 -98.5t79 -262.5v-129h-152v138q0 98 -40 152.5t-128 54.5q-86 0 -127 -54.5t-41 -152.5v-758q0 -98 41 -152.5t127 -54.5q88 0 128 54.5t40 152.5v186h152v-178q0 -154 -71 -251t-218 -107v-64 q72 0 112 -27.5t40 -76.5q0 -61 -51.5 -96t-143.5 -35q-90 0 -139 33.5t-49 93.5v16h104v-14q0 -53 84 -60q88 0 88 66q0 61 -100 61h-19v103q-145 10 -213.5 108.5t-68.5 249.5z" />
<glyph unicode="&#xc8;" horiz-adv-x="737" d="M82 0v1434h590v-146h-430v-489h350v-144h-350v-510h430v-145h-590zM176 1731h166l141 -211h-116z" />
<glyph unicode="&#xc9;" horiz-adv-x="737" d="M82 0v1434h590v-146h-430v-489h350v-144h-350v-510h430v-145h-590zM279 1513l143 211h158l-191 -211h-110z" />
<glyph unicode="&#xca;" horiz-adv-x="737" d="M82 0v1434h590v-146h-430v-489h350v-144h-350v-510h430v-145h-590zM127 1513l176 207h141l179 -207h-140l-110 123l-107 -123h-139z" />
<glyph unicode="&#xcb;" horiz-adv-x="737" d="M82 0v1434h590v-146h-430v-489h350v-144h-350v-510h430v-145h-590zM178 1513v185h139v-185h-139zM432 1513v185h139v-185h-139z" />
<glyph unicode="&#xcc;" horiz-adv-x="323" d="M-51 1724h166l143 -211h-119zM82 0v1434h160v-1434h-160z" />
<glyph unicode="&#xcd;" horiz-adv-x="323" d="M63 1513l142 211h160l-191 -211h-111zM82 0v1434h160v-1434h-160z" />
<glyph unicode="&#xce;" horiz-adv-x="323" d="M-86 1513l176 205h141l179 -205h-140l-108 121l-109 -121h-139zM82 0v1434h160v-1434h-160z" />
<glyph unicode="&#xcf;" horiz-adv-x="323" d="M-35 1513v185h139v-185h-139zM82 0v1434h160v-1434h-160zM219 1513v185h139v-185h-139z" />
<glyph unicode="&#xd0;" horiz-adv-x="811" d="M-2 651v131h84v652h336q168 0 246.5 -95.5t78.5 -261.5v-723q0 -166 -78.5 -260t-246.5 -94h-336v651h-84zM242 145h174q86 0 128 52.5t42 150.5v737q0 98 -42 150.5t-130 52.5h-172v-506h159v-131h-159v-506z" />
<glyph unicode="&#xd1;" horiz-adv-x="837" d="M80 0v1434h203l331 -1037v1037h142v-1434h-166l-367 1159v-1159h-143zM170 1581q25 63 63.5 91t88.5 28q31 0 55 -9.5t45.5 -20.5t42 -20.5t43.5 -9.5q53 0 82 60l80 -53q-25 -61 -62 -90t-84 -29q-31 0 -55.5 9t-46 20.5t-42 20.5t-44.5 9q-29 0 -49.5 -12t-36.5 -47z " />
<glyph unicode="&#xd2;" horiz-adv-x="796" d="M70 346v741q0 166 80.5 263.5t246.5 97.5t248 -97.5t82 -263.5v-741q0 -164 -82 -262t-248 -98t-246.5 98t-80.5 262zM190 1731h166l142 -211h-117zM227 338q0 -98 42 -152.5t128 -54.5q88 0 129 54.5t41 152.5v758q0 98 -41 152.5t-129 54.5q-86 0 -128 -54.5 t-42 -152.5v-758z" />
<glyph unicode="&#xd3;" horiz-adv-x="796" d="M70 346v741q0 166 80.5 263.5t246.5 97.5t248 -97.5t82 -263.5v-741q0 -164 -82 -262t-248 -98t-246.5 98t-80.5 262zM227 338q0 -98 42 -152.5t128 -54.5q88 0 129 54.5t41 152.5v758q0 98 -41 152.5t-129 54.5q-86 0 -128 -54.5t-42 -152.5v-758zM299 1520l143 211h158 l-190 -211h-111z" />
<glyph unicode="&#xd4;" horiz-adv-x="796" d="M70 346v741q0 166 80.5 263.5t246.5 97.5t248 -97.5t82 -263.5v-741q0 -164 -82 -262t-248 -98t-246.5 98t-80.5 262zM150 1518l176 206h141l178 -206h-139l-111 120l-106 -120h-139zM227 338q0 -98 42 -152.5t128 -54.5q88 0 129 54.5t41 152.5v758q0 98 -41 152.5 t-129 54.5q-86 0 -128 -54.5t-42 -152.5v-758z" />
<glyph unicode="&#xd5;" horiz-adv-x="796" d="M70 346v741q0 166 80.5 263.5t246.5 97.5t248 -97.5t82 -263.5v-741q0 -164 -82 -262t-248 -98t-246.5 98t-80.5 262zM152 1579q27 63 65.5 90t85.5 29q31 0 55.5 -9.5t46 -21.5t43 -21.5t44.5 -9.5q27 2 46 15.5t35 46.5l78 -56q-23 -61 -60.5 -88.5t-84.5 -27.5 q-31 0 -54.5 9t-46 20.5t-43 20.5t-45.5 9q-29 0 -49 -13t-37 -48zM227 338q0 -98 42 -152.5t128 -54.5q88 0 129 54.5t41 152.5v758q0 98 -41 152.5t-129 54.5q-86 0 -128 -54.5t-42 -152.5v-758z" />
<glyph unicode="&#xd6;" horiz-adv-x="796" d="M70 346v741q0 166 80.5 263.5t246.5 97.5t248 -97.5t82 -263.5v-741q0 -164 -82 -262t-248 -98t-246.5 98t-80.5 262zM201 1518v184h139v-184h-139zM227 338q0 -98 42 -152.5t128 -54.5q88 0 129 54.5t41 152.5v758q0 98 -41 152.5t-129 54.5q-86 0 -128 -54.5 t-42 -152.5v-758zM455 1518v184h139v-184h-139z" />
<glyph unicode="&#xd8;" horiz-adv-x="796" d="M70 346v741q0 166 80.5 263.5t246.5 97.5q129 0 211 -64l37 101l72 -27l-51 -135q61 -92 61 -236v-741q0 -164 -82 -262t-248 -98q-129 0 -209 63l-38 -102l-70 26l51 138q-61 92 -61 235zM227 369l318 848q-41 86 -148 86q-86 0 -128 -54.5t-42 -152.5v-727zM250 215 q41 -84 147 -84q88 0 129 54.5t41 152.5v723z" />
<glyph unicode="&#xd9;" d="M76 346v1088h157v-1096q0 -98 40 -152.5t128 -54.5q86 0 126 54.5t40 152.5v1096h150v-1088q0 -164 -78 -263t-244 -99q-164 0 -241.5 99t-77.5 263zM188 1724h166l144 -211h-119z" />
<glyph unicode="&#xda;" d="M76 346v1088h157v-1096q0 -98 40 -152.5t128 -54.5q86 0 126 54.5t40 152.5v1096h150v-1088q0 -164 -78 -263t-244 -99q-164 0 -241.5 99t-77.5 263zM305 1520l144 211h157l-190 -211h-111z" />
<glyph unicode="&#xdb;" d="M76 346v1088h157v-1096q0 -98 40 -152.5t128 -54.5q86 0 126 54.5t40 152.5v1096h150v-1088q0 -164 -78 -263t-244 -99q-164 0 -241.5 99t-77.5 263zM152 1518l176 206h141l178 -206h-139l-111 120l-106 -120h-139z" />
<glyph unicode="&#xdc;" d="M76 346v1088h157v-1096q0 -98 40 -152.5t128 -54.5q86 0 126 54.5t40 152.5v1096h150v-1088q0 -164 -78 -263t-244 -99q-164 0 -241.5 99t-77.5 263zM201 1516v184h141v-184h-141zM457 1516v184h139v-184h-139z" />
<glyph unicode="&#xdd;" horiz-adv-x="831" d="M33 1434h166l223 -705l225 705h152l-305 -920v-514h-158v514zM328 1513l143 211h158l-191 -211h-110z" />
<glyph unicode="&#xde;" horiz-adv-x="772" d="M82 0v1434h160v-207h153q170 0 246 -93.5t76 -259.5v-169q0 -174 -81 -261.5t-253 -87.5h-141v-356h-160zM242 502h141q90 0 133 44t43 148v191q0 98 -38 147t-126 49h-153v-579z" />
<glyph unicode="&#xdf;" horiz-adv-x="1492" d="M55 344v82h150v-90q0 -98 41 -151.5t127 -53.5q88 0 128 53.5t40 151.5q0 80 -36 138t-89.5 108.5t-114.5 98.5t-114.5 105.5t-89.5 130t-36 173.5q0 166 78 262t240 96q166 0 242.5 -97.5t76.5 -260.5v-39h-151v47q0 98 -39 151.5t-125 53.5t-125 -53.5t-39 -149.5 q0 -80 36 -139.5t89 -109.5t115.5 -98t116 -105.5t89 -130.5t35.5 -173q0 -164 -78.5 -261t-244.5 -97t-244 97t-78 261zM793 344v82h151v-90q0 -98 41 -151.5t127 -53.5t127 53.5t41 151.5q0 80 -36 138t-89 108.5t-115.5 98.5t-116 105.5t-89 130t-35.5 173.5 q0 166 78.5 262t240.5 96q164 0 241 -97.5t77 -260.5v-39h-150v47q0 98 -39 151.5t-125 53.5t-125 -53.5t-39 -149.5q0 -80 36 -139.5t89.5 -109.5t115 -98t114.5 -105.5t89 -130.5t36 -173q0 -164 -78 -261t-244 -97t-244.5 97t-78.5 261z" />
<glyph unicode="&#xe0;" horiz-adv-x="864" d="M41 0l274 1434h232l274 -1434h-159l-56 289h-362l-56 -289h-147zM225 1720h164l143 -211h-116zM264 426h320l-162 827z" />
<glyph unicode="&#xe1;" horiz-adv-x="864" d="M41 0l274 1434h232l274 -1434h-159l-56 289h-362l-56 -289h-147zM264 426h320l-162 827zM324 1509l143 211h158l-189 -211h-112z" />
<glyph unicode="&#xe2;" horiz-adv-x="864" d="M41 0l274 1434h232l274 -1434h-159l-56 289h-362l-56 -289h-147zM182 1509l176 205h144l176 -205h-139l-109 121l-108 -121h-140zM264 426h320l-162 827z" />
<glyph unicode="&#xe3;" horiz-adv-x="864" d="M41 0l274 1434h232l274 -1434h-159l-56 289h-362l-56 -289h-147zM180 1573q25 63 64 90t86 29q31 0 56.5 -9.5t47 -21.5t42 -21.5t42.5 -9.5q27 2 46.5 15.5t35.5 46.5l80 -56q-25 -59 -61.5 -87.5t-83.5 -28.5q-31 0 -55.5 9t-46 20.5t-42 20.5t-45.5 9 q-29 0 -49.5 -13.5t-36.5 -47.5zM264 426h320l-162 827z" />
<glyph unicode="&#xe4;" horiz-adv-x="864" d="M41 0l274 1434h232l274 -1434h-159l-56 289h-362l-56 -289h-147zM233 1509v185h140v-185h-140zM264 426h320l-162 827zM487 1509v185h140v-185h-140z" />
<glyph unicode="&#xe5;" horiz-adv-x="864" d="M41 0l274 1434h232l274 -1434h-159l-56 289h-362l-56 -289h-147zM264 426h320l-162 827zM279 1659q0 63 42.5 106t108.5 43q63 0 106.5 -43t43.5 -106q0 -66 -43 -108t-107 -42q-66 0 -108.5 42t-42.5 108zM354 1659q0 -33 21.5 -53.5t54.5 -20.5q31 0 52.5 20.5 t21.5 53.5q0 31 -21.5 52.5t-52.5 21.5q-33 0 -54.5 -21.5t-21.5 -52.5z" />
<glyph unicode="&#xe6;" horiz-adv-x="1198" d="M33 0l446 1434h654v-146h-406v-489h330v-144h-330v-510h406v-145h-564v291h-293l-92 -291h-151zM313 430h256v803z" />
<glyph unicode="&#xe7;" horiz-adv-x="778" d="M70 346v741q0 82 19.5 149t59 114t100 72.5t142.5 25.5q166 0 245 -98.5t79 -262.5v-129h-152v138q0 98 -40 152.5t-128 54.5q-86 0 -127 -54.5t-41 -152.5v-758q0 -98 41 -152.5t127 -54.5q88 0 128 54.5t40 152.5v186h152v-178q0 -154 -71 -251t-218 -107v-64 q72 0 112 -27.5t40 -76.5q0 -61 -51.5 -96t-143.5 -35q-90 0 -139 33.5t-49 93.5v16h104v-14q0 -53 84 -60q88 0 88 66q0 61 -100 61h-19v103q-145 10 -213.5 108.5t-68.5 249.5z" />
<glyph unicode="&#xe8;" horiz-adv-x="737" d="M82 0v1434h590v-146h-430v-489h350v-144h-350v-510h430v-145h-590zM176 1731h166l141 -211h-116z" />
<glyph unicode="&#xe9;" horiz-adv-x="737" d="M82 0v1434h590v-146h-430v-489h350v-144h-350v-510h430v-145h-590zM279 1513l143 211h158l-191 -211h-110z" />
<glyph unicode="&#xea;" horiz-adv-x="737" d="M82 0v1434h590v-146h-430v-489h350v-144h-350v-510h430v-145h-590zM127 1513l176 207h141l179 -207h-140l-110 123l-107 -123h-139z" />
<glyph unicode="&#xeb;" horiz-adv-x="737" d="M82 0v1434h590v-146h-430v-489h350v-144h-350v-510h430v-145h-590zM178 1513v185h139v-185h-139zM432 1513v185h139v-185h-139z" />
<glyph unicode="&#xec;" horiz-adv-x="323" d="M-51 1724h166l143 -211h-119zM82 0v1434h160v-1434h-160z" />
<glyph unicode="&#xed;" horiz-adv-x="323" d="M63 1513l142 211h160l-191 -211h-111zM82 0v1434h160v-1434h-160z" />
<glyph unicode="&#xee;" horiz-adv-x="323" d="M-86 1513l176 205h141l179 -205h-140l-108 121l-109 -121h-139zM82 0v1434h160v-1434h-160z" />
<glyph unicode="&#xef;" horiz-adv-x="323" d="M-35 1513v185h139v-185h-139zM82 0v1434h160v-1434h-160zM219 1513v185h139v-185h-139z" />
<glyph unicode="&#xf0;" horiz-adv-x="811" d="M2 651v129h80v654h336q168 0 246.5 -95.5t78.5 -261.5v-723q0 -166 -78.5 -260t-246.5 -94h-336v651h-80zM242 145h174q86 0 128 52.5t42 150.5v737q0 98 -42 150.5t-130 52.5h-172v-508h161v-129h-161v-506z" />
<glyph unicode="&#xf1;" horiz-adv-x="837" d="M80 0v1434h203l331 -1037v1037h142v-1434h-166l-367 1159v-1159h-143zM170 1581q25 63 63.5 91t88.5 28q31 0 55 -9.5t45.5 -20.5t42 -20.5t43.5 -9.5q53 0 82 60l80 -53q-25 -61 -62 -90t-84 -29q-31 0 -55.5 9t-46 20.5t-42 20.5t-44.5 9q-29 0 -49.5 -12t-36.5 -47z " />
<glyph unicode="&#xf2;" horiz-adv-x="796" d="M70 346v741q0 166 80.5 263.5t246.5 97.5t248 -97.5t82 -263.5v-741q0 -164 -82 -262t-248 -98t-246.5 98t-80.5 262zM190 1731h166l142 -211h-117zM227 338q0 -98 42 -152.5t128 -54.5q88 0 129 54.5t41 152.5v758q0 98 -41 152.5t-129 54.5q-86 0 -128 -54.5 t-42 -152.5v-758z" />
<glyph unicode="&#xf3;" horiz-adv-x="796" d="M70 346v741q0 166 80.5 263.5t246.5 97.5t248 -97.5t82 -263.5v-741q0 -164 -82 -262t-248 -98t-246.5 98t-80.5 262zM227 338q0 -98 42 -152.5t128 -54.5q88 0 129 54.5t41 152.5v758q0 98 -41 152.5t-129 54.5q-86 0 -128 -54.5t-42 -152.5v-758zM299 1520l143 211h158 l-190 -211h-111z" />
<glyph unicode="&#xf4;" horiz-adv-x="796" d="M70 346v741q0 166 80.5 263.5t246.5 97.5t248 -97.5t82 -263.5v-741q0 -164 -82 -262t-248 -98t-246.5 98t-80.5 262zM150 1518l176 206h141l178 -206h-139l-111 120l-106 -120h-139zM227 338q0 -98 42 -152.5t128 -54.5q88 0 129 54.5t41 152.5v758q0 98 -41 152.5 t-129 54.5q-86 0 -128 -54.5t-42 -152.5v-758z" />
<glyph unicode="&#xf5;" horiz-adv-x="796" d="M70 346v741q0 166 80.5 263.5t246.5 97.5t248 -97.5t82 -263.5v-741q0 -164 -82 -262t-248 -98t-246.5 98t-80.5 262zM152 1579q27 63 65.5 90t85.5 29q31 0 55.5 -9.5t46 -21.5t43 -21.5t44.5 -9.5q27 2 46 15.5t35 46.5l78 -56q-23 -61 -60.5 -88.5t-84.5 -27.5 q-31 0 -54.5 9t-46 20.5t-43 20.5t-45.5 9q-29 0 -49 -13t-37 -48zM227 338q0 -98 42 -152.5t128 -54.5q88 0 129 54.5t41 152.5v758q0 98 -41 152.5t-129 54.5q-86 0 -128 -54.5t-42 -152.5v-758z" />
<glyph unicode="&#xf6;" horiz-adv-x="796" d="M70 346v741q0 166 80.5 263.5t246.5 97.5t248 -97.5t82 -263.5v-741q0 -164 -82 -262t-248 -98t-246.5 98t-80.5 262zM201 1518v184h139v-184h-139zM227 338q0 -98 42 -152.5t128 -54.5q88 0 129 54.5t41 152.5v758q0 98 -41 152.5t-129 54.5q-86 0 -128 -54.5 t-42 -152.5v-758zM455 1518v184h139v-184h-139z" />
<glyph unicode="&#xf7;" horiz-adv-x="716" d="M61 659v115h594v-115h-594zM281 354v199h153v-199h-153zM281 881v198h153v-198h-153z" />
<glyph unicode="&#xf8;" horiz-adv-x="796" d="M70 346v741q0 166 80.5 263.5t246.5 97.5q129 0 211 -64l37 101l72 -27l-51 -135q61 -92 61 -236v-741q0 -164 -82 -262t-248 -98q-129 0 -209 63l-38 -102l-70 26l51 138q-61 92 -61 235zM227 369l318 848q-41 86 -148 86q-86 0 -128 -54.5t-42 -152.5v-727zM250 215 q41 -84 147 -84q88 0 129 54.5t41 152.5v723z" />
<glyph unicode="&#xf9;" d="M76 346v1088h157v-1096q0 -98 40 -152.5t128 -54.5q86 0 126 54.5t40 152.5v1096h150v-1088q0 -164 -78 -263t-244 -99q-164 0 -241.5 99t-77.5 263zM188 1724h166l144 -211h-119z" />
<glyph unicode="&#xfa;" d="M76 346v1088h157v-1096q0 -98 40 -152.5t128 -54.5q86 0 126 54.5t40 152.5v1096h150v-1088q0 -164 -78 -263t-244 -99q-164 0 -241.5 99t-77.5 263zM305 1520l144 211h157l-190 -211h-111z" />
<glyph unicode="&#xfb;" d="M76 346v1088h157v-1096q0 -98 40 -152.5t128 -54.5q86 0 126 54.5t40 152.5v1096h150v-1088q0 -164 -78 -263t-244 -99q-164 0 -241.5 99t-77.5 263zM152 1518l176 206h141l178 -206h-139l-111 120l-106 -120h-139z" />
<glyph unicode="&#xfc;" d="M76 346v1088h157v-1096q0 -98 40 -152.5t128 -54.5q86 0 126 54.5t40 152.5v1096h150v-1088q0 -164 -78 -263t-244 -99q-164 0 -241.5 99t-77.5 263zM201 1516v184h141v-184h-141zM457 1516v184h139v-184h-139z" />
<glyph unicode="&#xfd;" horiz-adv-x="831" d="M33 1434h166l223 -705l225 705h152l-305 -920v-514h-158v514zM328 1513l143 211h158l-191 -211h-110z" />
<glyph unicode="&#xfe;" horiz-adv-x="772" d="M82 0v1434h160v-207h153q170 0 246 -93.5t76 -259.5v-169q0 -174 -81 -261.5t-253 -87.5h-141v-356h-160zM242 502h141q90 0 133 44t43 148v191q0 98 -38 147t-126 49h-153v-579z" />
<glyph unicode="&#xff;" horiz-adv-x="831" d="M33 1434h166l223 -705l225 705h152l-305 -920v-514h-158v514zM223 1513v185h139v-185h-139zM477 1513v185h139v-185h-139z" />
<glyph unicode="&#x131;" horiz-adv-x="323" d="M82 0v1434h160v-1434h-160z" />
<glyph unicode="&#x152;" horiz-adv-x="1181" d="M68 356v721q0 162 75.5 259.5t241.5 97.5h731v-146h-405v-489h329v-144h-329v-510h405v-145h-731q-166 0 -241.5 97.5t-75.5 258.5zM227 348q0 -92 37 -147.5t123 -55.5h166v1143h-166q-86 0 -123 -55t-37 -148v-737z" />
<glyph unicode="&#x153;" horiz-adv-x="1181" d="M68 356v721q0 162 75.5 259.5t241.5 97.5h731v-146h-405v-489h329v-144h-329v-510h405v-145h-731q-166 0 -241.5 97.5t-75.5 258.5zM227 348q0 -92 37 -147.5t123 -55.5h166v1143h-166q-86 0 -123 -55t-37 -148v-737z" />
<glyph unicode="&#x178;" horiz-adv-x="831" d="M33 1434h166l223 -705l225 705h152l-305 -920v-514h-158v514zM223 1513v185h139v-185h-139zM477 1513v185h139v-185h-139z" />
<glyph unicode="&#x2c6;" horiz-adv-x="512" d="M8 1532l178 205h142l176 -205h-139l-109 121l-109 -121h-139z" />
<glyph unicode="&#x2c7;" horiz-adv-x="512" d="M8 1737h139l109 -123l109 123h139l-176 -205h-142z" />
<glyph unicode="&#x2d8;" horiz-adv-x="516" d="M45 1708h96q4 -59 36 -82.5t79 -23.5q51 0 83 23.5t36 82.5h98q-2 -96 -58.5 -151.5t-158.5 -55.5q-100 0 -154.5 55.5t-56.5 151.5z" />
<glyph unicode="&#x2d9;" horiz-adv-x="405" d="M133 1522v184h139v-184h-139z" />
<glyph unicode="&#x2da;" horiz-adv-x="479" d="M88 1667q0 63 44.5 106.5t107.5 43.5t106 -43t43 -107q0 -63 -43 -106t-106 -43t-107.5 43t-44.5 106zM164 1667q0 -33 21.5 -53.5t54.5 -20.5q31 0 52 20.5t21 53.5t-21 53.5t-52 20.5q-33 0 -54.5 -20.5t-21.5 -53.5z" />
<glyph unicode="&#x2db;" horiz-adv-x="464" d="M92 -178q-2 51 34 99t101 85h70q-43 -33 -63.5 -75t-18.5 -72q0 -33 23.5 -47.5t52.5 -14.5t47 5t35 14v-84q-31 -14 -60.5 -19.5t-66.5 -5.5q-68 0 -111 27.5t-43 87.5z" />
<glyph unicode="&#x2dc;" horiz-adv-x="524" d="M12 1577q27 63 66 91t86 28q31 0 55.5 -9.5t46 -20.5t43 -20.5t43.5 -9.5q27 0 46.5 13.5t35.5 46.5l78 -54q-23 -61 -60.5 -89.5t-84.5 -28.5q-31 0 -54.5 9t-46 20.5t-43 20.5t-45.5 9q-29 0 -49 -12t-37 -47z" />
<glyph unicode="&#x2dd;" horiz-adv-x="495" d="M-8 1526l119 211h147l-164 -211h-102zM213 1526l117 211h147l-164 -211h-100z" />
<glyph unicode="&#x401;" horiz-adv-x="737" d="M82 0v1434h590v-146h-430v-489h350v-144h-350v-510h430v-145h-590zM178 1518v184h139v-184h-139zM432 1518v184h141v-184h-141z" />
<glyph unicode="&#x410;" horiz-adv-x="864" d="M41 0l274 1434h232l274 -1434h-159l-56 289h-362l-56 -289h-147zM264 426h320l-162 827z" />
<glyph unicode="&#x411;" horiz-adv-x="821" d="M84 0v1434h604v-146h-446v-446h168q168 0 253 -81t85 -255v-158q0 -168 -80 -258t-250 -90h-334zM242 145h176q88 0 129 46.5t41 146.5v178q0 104 -45 143t-133 39h-168v-553z" />
<glyph unicode="&#x412;" horiz-adv-x="802" d="M82 0v1434h321q168 0 240 -79t72 -239v-67q0 -115 -37 -185.5t-131 -99.5q104 -29 148 -109t44 -198v-121q0 -162 -79.5 -249t-247.5 -87h-330zM242 145h170q170 0 170 195v127q0 121 -48.5 167t-152.5 46h-139v-535zM242 825h123q96 0 144 39t48 152v84q0 96 -36 142 t-122 46h-157v-463z" />
<glyph unicode="&#x413;" horiz-adv-x="729" d="M84 0v1434h571v-146h-413v-1288h-158z" />
<glyph unicode="&#x414;" horiz-adv-x="1001" d="M49 141h92q37 41 48.5 92.5t15.5 116.5l55 1084h576v-1293h108v-338h-156v197h-585v-197h-154v338zM295 141h379v1147h-266l-48 -936q-4 -78 -17 -127t-48 -84z" />
<glyph unicode="&#x415;" horiz-adv-x="737" d="M82 0v1434h590v-146h-430v-489h350v-144h-350v-510h430v-145h-590z" />
<glyph unicode="&#x416;" horiz-adv-x="1255" d="M37 0l328 825l-320 609h160l344 -660v660h158v-660l346 660h159l-317 -605l326 -829h-164l-275 676l-75 -135v-541h-158v541l-74 137l-274 -678h-164z" />
<glyph unicode="&#x417;" d="M74 346v139h149v-147q0 -98 41 -152.5t127 -54.5q88 0 128 55.5t40 163.5v113q0 213 -184 213h-68v143h76q80 0 128 51.5t48 145.5v65q0 111 -40 166.5t-128 55.5q-86 0 -127 -54.5t-41 -152.5v-97h-147v91q0 166 76.5 262t242.5 96t245 -98.5t79 -262.5v-36 q0 -111 -44 -188t-132 -109q92 -31 134 -109t42 -186v-113q0 -164 -79 -262t-245 -98q-164 0 -242.5 98t-78.5 262z" />
<glyph unicode="&#x418;" horiz-adv-x="837" d="M82 0v1434h141v-1069l148 452l209 617h178v-1434h-144v1141l-153 -475l-213 -666h-166z" />
<glyph unicode="&#x419;" horiz-adv-x="839" d="M82 0v1434h141v-1069l135 419l222 650h178v-1434h-144v1141l-149 -463l-217 -678h-166zM207 1729h100q4 -59 37 -82t84 -23t85 22.5t38 82.5h98q0 -94 -58.5 -147.5t-162.5 -53.5t-160.5 53t-60.5 148z" />
<glyph unicode="&#x41a;" horiz-adv-x="837" d="M82 0v1434h160v-693l381 693h161l-362 -654l375 -780h-164l-307 623l-84 -142v-481h-160z" />
<glyph unicode="&#x41b;" horiz-adv-x="909" d="M39 -2v145q49 0 80 12.5t48 38t23.5 64.5t8.5 90l39 1086h583v-1434h-159v1288h-275l-33 -932q-4 -86 -18 -151.5t-47 -111.5t-87.5 -70.5t-135.5 -24.5h-27z" />
<glyph unicode="&#x41c;" horiz-adv-x="1071" d="M80 0v1434h223l236 -1145l227 1145h223v-1434h-151v1153l-228 -1151h-153l-238 1141v-1143h-139z" />
<glyph unicode="&#x41d;" horiz-adv-x="835" d="M82 0v1434h160v-646h352v646h160v-1434h-160v645h-352v-645h-160z" />
<glyph unicode="&#x41e;" horiz-adv-x="796" d="M70 346v741q0 166 80.5 263.5t246.5 97.5t248 -97.5t82 -263.5v-741q0 -164 -82 -262t-248 -98t-246.5 98t-80.5 262zM227 338q0 -98 42 -152.5t128 -54.5q88 0 129 54.5t41 152.5v758q0 98 -41 152.5t-129 54.5q-86 0 -128 -54.5t-42 -152.5v-758z" />
<glyph unicode="&#x41f;" horiz-adv-x="835" d="M82 0v1434h672v-1434h-160v1288h-352v-1288h-160z" />
<glyph unicode="&#x420;" horiz-adv-x="759" d="M82 0v1434h313q170 0 246 -93.5t76 -257.5v-172q0 -172 -81 -259t-253 -87h-141v-565h-160zM242 709h141q90 0 133 44t43 148v191q0 98 -38 147t-126 49h-153v-579z" />
<glyph unicode="&#x421;" horiz-adv-x="778" d="M70 346v741q0 82 19.5 149t59 114t100 72.5t142.5 25.5q166 0 245 -98.5t79 -262.5v-129h-152v138q0 98 -40 152.5t-128 54.5q-86 0 -127 -54.5t-41 -152.5v-758q0 -98 41 -152.5t127 -54.5q88 0 128 54.5t40 152.5v186h152v-178q0 -164 -79 -262t-245 -98 q-164 0 -242.5 98t-78.5 262z" />
<glyph unicode="&#x422;" horiz-adv-x="761" d="M37 1288v146h688v-146h-264v-1288h-160v1288h-264z" />
<glyph unicode="&#x423;" horiz-adv-x="854" d="M37 1434h160l145 -498l98 -361l84 361l129 498h166l-307 -1119q-18 -80 -44 -141t-69 -102t-107.5 -59.5t-162.5 -14.5v143q92 -4 138 28t67 114l33 94z" />
<glyph unicode="&#x424;" horiz-adv-x="1165" d="M70 516v391q0 172 78.5 265.5t252.5 93.5h101v168h157v-168h101q174 0 253 -93.5t79 -265.5v-391q0 -172 -79 -265t-253 -93h-101v-158h-157v158h-101q-174 0 -252.5 93t-78.5 265zM227 506q0 -104 41 -156.5t133 -52.5h101v827h-101q-92 0 -133 -51t-41 -155v-412z M659 297h101q176 0 176 209v412q0 104 -42 155t-134 51h-101v-827z" />
<glyph unicode="&#x425;" horiz-adv-x="890" d="M47 0l289 739l-270 695h165l222 -574l223 574h149l-268 -695l287 -739h-168l-238 618l-239 -618h-152z" />
<glyph unicode="&#x426;" horiz-adv-x="931" d="M96 0v1434h158v-1289h352v1289h162v-1293h109v-334h-156v193h-625z" />
<glyph unicode="&#x427;" horiz-adv-x="821" d="M72 862v572h159v-560q0 -92 45.5 -149t131.5 -57q147 0 172 168v598h157v-1434h-157v635q-39 -55 -98.5 -84t-125.5 -29q-72 0 -126 25.5t-89 72t-52 109t-17 133.5z" />
<glyph unicode="&#x428;" horiz-adv-x="1189" d="M82 0v1434h160v-1289h274v1289h160v-1289h274v1289h158v-1434h-1026z" />
<glyph unicode="&#x429;" horiz-adv-x="1273" d="M82 0v1434h160v-1289h274v1289h158v-1289h276v1289h158v-1293h111v-334h-154v193h-983z" />
<glyph unicode="&#x42a;" horiz-adv-x="897" d="M20 1290v144h338v-566h144q334 0 334 -346v-172q0 -164 -77 -257t-245 -93h-313v1290h-181zM358 145h156q88 0 125 49.5t37 147.5v190q0 104 -42 148.5t-132 44.5h-144v-580z" />
<glyph unicode="&#x42b;" horiz-adv-x="1089" d="M82 0v1434h160v-566h141q172 0 253 -87t81 -259v-172q0 -164 -77 -257t-245 -93h-313zM242 145h153q88 0 126 49.5t38 147.5v190q0 104 -43 148.5t-133 44.5h-141v-580zM850 0v1434h158v-1434h-158z" />
<glyph unicode="&#x42c;" horiz-adv-x="780" d="M82 0v1434h160v-566h141q172 0 253 -87t81 -259v-172q0 -164 -77 -257t-245 -93h-313zM242 145h153q88 0 126 49.5t38 147.5v190q0 104 -43 148.5t-133 44.5h-141v-580z" />
<glyph unicode="&#x42d;" horiz-adv-x="778" d="M63 346v156h150v-164q0 -98 41 -152.5t127 -54.5t127 54.5t41 152.5v332h-250v143h250v283q0 98 -41 152.5t-127 54.5t-127 -54.5t-41 -152.5v-115h-147v106q0 82 19 149t58 114t99.5 72.5t142.5 25.5t142.5 -25.5t100.5 -72.5t59.5 -114t19.5 -149v-741q0 -164 -79 -262 t-243 -98t-243 98t-79 262z" />
<glyph unicode="&#x42e;" horiz-adv-x="1177" d="M82 0v1434h160v-646h207v299q0 166 81.5 263.5t247.5 97.5t247 -97.5t81 -263.5v-741q0 -164 -81 -262t-247 -98t-247.5 98t-81.5 262v299h-207v-645h-160zM608 338q0 -98 41 -152.5t129 -54.5q86 0 128 54.5t42 152.5v758q0 98 -42 152.5t-128 54.5q-88 0 -129 -54.5 t-41 -152.5v-758z" />
<glyph unicode="&#x42f;" horiz-adv-x="806" d="M55 0q18 37 23.5 81t5.5 91v223q0 117 40 194t138 105q-176 57 -176 295v117q0 160 75 244t245 84h319v-1434h-160v612h-112q-100 0 -154.5 -46t-54.5 -167v-225q0 -72 -6.5 -107.5t-20.5 -66.5h-162zM244 954q0 -117 53 -156.5t147 -39.5h121v530h-155q-90 0 -128 -49 t-38 -147v-138z" />
<glyph unicode="&#x430;" horiz-adv-x="864" d="M41 0l274 1434h232l274 -1434h-159l-56 289h-362l-56 -289h-147zM264 426h320l-162 827z" />
<glyph unicode="&#x431;" horiz-adv-x="821" d="M84 0v1434h604v-146h-446v-446h168q168 0 253 -81t85 -255v-158q0 -168 -80 -258t-250 -90h-334zM242 145h176q88 0 129 46.5t41 146.5v178q0 104 -45 143t-133 39h-168v-553z" />
<glyph unicode="&#x432;" horiz-adv-x="802" d="M82 0v1434h321q168 0 240 -79t72 -239v-67q0 -115 -37 -185.5t-131 -99.5q104 -29 148 -109t44 -198v-121q0 -162 -79.5 -249t-247.5 -87h-330zM242 145h170q170 0 170 195v127q0 121 -48.5 167t-152.5 46h-139v-535zM242 825h123q96 0 144 39t48 152v84q0 96 -36 142 t-122 46h-157v-463z" />
<glyph unicode="&#x433;" horiz-adv-x="729" d="M84 0v1434h571v-146h-413v-1288h-158z" />
<glyph unicode="&#x434;" horiz-adv-x="1001" d="M49 141h92q37 41 48.5 92.5t15.5 116.5l55 1084h576v-1293h108v-338h-156v197h-585v-197h-154v338zM295 141h379v1147h-266l-48 -936q-4 -78 -17 -127t-48 -84z" />
<glyph unicode="&#x435;" horiz-adv-x="737" d="M82 0v1434h590v-146h-430v-489h350v-144h-350v-510h430v-145h-590z" />
<glyph unicode="&#x436;" horiz-adv-x="1255" d="M37 0l328 825l-320 609h160l344 -660v660h158v-660l346 660h159l-317 -605l326 -829h-164l-275 676l-75 -135v-541h-158v541l-74 137l-274 -678h-164z" />
<glyph unicode="&#x437;" d="M74 346v139h149v-147q0 -98 41 -152.5t127 -54.5q88 0 128 55.5t40 163.5v113q0 213 -184 213h-68v143h76q80 0 128 51.5t48 145.5v65q0 111 -40 166.5t-128 55.5q-86 0 -127 -54.5t-41 -152.5v-97h-147v91q0 166 76.5 262t242.5 96t245 -98.5t79 -262.5v-36 q0 -111 -44 -188t-132 -109q92 -31 134 -109t42 -186v-113q0 -164 -79 -262t-245 -98q-164 0 -242.5 98t-78.5 262z" />
<glyph unicode="&#x438;" horiz-adv-x="837" d="M82 0v1434h141v-1069l127 395l230 674h178v-1434h-144v1141l-155 -479l-211 -662h-166z" />
<glyph unicode="&#x439;" horiz-adv-x="839" d="M82 0v1434h141v-1069l133 413l224 656h178v-1434h-144v1141l-143 -451l-223 -690h-166zM207 1726h100q4 -59 37 -81.5t84 -22.5t85 22.5t38 81.5h98q0 -94 -58.5 -147t-162.5 -53t-160.5 53t-60.5 147z" />
<glyph unicode="&#x43a;" horiz-adv-x="837" d="M82 0v1434h160v-693l381 693h161l-362 -654l375 -780h-164l-307 623l-84 -142v-481h-160z" />
<glyph unicode="&#x43b;" horiz-adv-x="909" d="M39 -2v145q49 0 80 12.5t48 38t23.5 64.5t8.5 90l39 1086h583v-1434h-159v1288h-275l-33 -932q-4 -86 -18 -151.5t-47 -111.5t-87.5 -70.5t-135.5 -24.5h-27z" />
<glyph unicode="&#x43c;" horiz-adv-x="1071" d="M80 0v1434h223l236 -1145l227 1145h223v-1434h-151v1153l-228 -1151h-153l-238 1141v-1143h-139z" />
<glyph unicode="&#x43d;" horiz-adv-x="835" d="M82 0v1434h160v-646h352v646h160v-1434h-160v645h-352v-645h-160z" />
<glyph unicode="&#x43e;" horiz-adv-x="796" d="M70 346v741q0 166 80.5 263.5t246.5 97.5t248 -97.5t82 -263.5v-741q0 -164 -82 -262t-248 -98t-246.5 98t-80.5 262zM227 338q0 -98 42 -152.5t128 -54.5q88 0 129 54.5t41 152.5v758q0 98 -41 152.5t-129 54.5q-86 0 -128 -54.5t-42 -152.5v-758z" />
<glyph unicode="&#x43f;" horiz-adv-x="835" d="M82 0v1434h672v-1434h-160v1288h-352v-1288h-160z" />
<glyph unicode="&#x440;" horiz-adv-x="759" d="M82 0v1434h313q170 0 246 -93.5t76 -257.5v-172q0 -172 -81 -259t-253 -87h-141v-565h-160zM242 709h141q90 0 133 44t43 148v191q0 98 -38 147t-126 49h-153v-579z" />
<glyph unicode="&#x441;" horiz-adv-x="778" d="M70 346v741q0 82 19.5 149t59 114t100 72.5t142.5 25.5q166 0 245 -98.5t79 -262.5v-129h-152v138q0 98 -40 152.5t-128 54.5q-86 0 -127 -54.5t-41 -152.5v-758q0 -98 41 -152.5t127 -54.5q88 0 128 54.5t40 152.5v186h152v-178q0 -164 -79 -262t-245 -98 q-164 0 -242.5 98t-78.5 262z" />
<glyph unicode="&#x442;" horiz-adv-x="761" d="M37 1288v146h688v-146h-264v-1288h-160v1288h-264z" />
<glyph unicode="&#x443;" horiz-adv-x="854" d="M37 1434h160l145 -498l98 -361l84 361l129 498h166l-307 -1119q-18 -80 -44 -141t-69 -102t-107.5 -59.5t-162.5 -14.5v143q92 -4 138 28t67 114l33 94z" />
<glyph unicode="&#x444;" horiz-adv-x="1165" d="M70 516v391q0 172 78.5 265.5t252.5 93.5h101v168h157v-168h101q174 0 253 -93.5t79 -265.5v-391q0 -172 -79 -265t-253 -93h-101v-158h-157v158h-101q-174 0 -252.5 93t-78.5 265zM227 506q0 -104 41 -156.5t133 -52.5h101v827h-101q-92 0 -133 -51t-41 -155v-412z M659 297h101q176 0 176 209v412q0 104 -42 155t-134 51h-101v-827z" />
<glyph unicode="&#x445;" horiz-adv-x="890" d="M47 0l289 739l-270 695h165l222 -574l223 574h149l-268 -695l287 -739h-168l-238 618l-239 -618h-152z" />
<glyph unicode="&#x446;" horiz-adv-x="931" d="M96 0v1434h158v-1289h352v1289h162v-1293h109v-334h-156v193h-625z" />
<glyph unicode="&#x447;" horiz-adv-x="821" d="M72 862v572h159v-560q0 -92 45.5 -149t131.5 -57q147 0 172 168v598h157v-1434h-157v635q-39 -55 -98.5 -84t-125.5 -29q-72 0 -126 25.5t-89 72t-52 109t-17 133.5z" />
<glyph unicode="&#x448;" horiz-adv-x="1189" d="M82 0v1434h160v-1289h274v1289h160v-1289h274v1289h158v-1434h-1026z" />
<glyph unicode="&#x449;" horiz-adv-x="1273" d="M82 0v1434h160v-1289h274v1289h158v-1289h276v1289h158v-1293h111v-334h-154v193h-983z" />
<glyph unicode="&#x44a;" horiz-adv-x="897" d="M20 1290v144h338v-566h144q334 0 334 -346v-172q0 -164 -77 -257t-245 -93h-313v1290h-181zM358 145h156q88 0 125 49.5t37 147.5v190q0 104 -42 148.5t-132 44.5h-144v-580z" />
<glyph unicode="&#x44b;" horiz-adv-x="1089" d="M82 0v1434h160v-566h141q172 0 253 -87t81 -259v-172q0 -164 -77 -257t-245 -93h-313zM242 145h153q88 0 126 49.5t38 147.5v190q0 104 -43 148.5t-133 44.5h-141v-580zM850 0v1434h158v-1434h-158z" />
<glyph unicode="&#x44c;" horiz-adv-x="780" d="M82 0v1434h160v-566h141q172 0 253 -87t81 -259v-172q0 -164 -77 -257t-245 -93h-313zM242 145h153q88 0 126 49.5t38 147.5v190q0 104 -43 148.5t-133 44.5h-141v-580z" />
<glyph unicode="&#x44d;" horiz-adv-x="778" d="M63 346v156h150v-164q0 -98 41 -152.5t127 -54.5t127 54.5t41 152.5v332h-250v143h250v283q0 98 -41 152.5t-127 54.5t-127 -54.5t-41 -152.5v-115h-147v106q0 82 19 149t58 114t99.5 72.5t142.5 25.5t142.5 -25.5t100.5 -72.5t59.5 -114t19.5 -149v-741q0 -164 -79 -262 t-243 -98t-243 98t-79 262z" />
<glyph unicode="&#x44e;" horiz-adv-x="1177" d="M82 0v1434h160v-646h207v299q0 166 81.5 263.5t247.5 97.5t247 -97.5t81 -263.5v-741q0 -164 -81 -262t-247 -98t-247.5 98t-81.5 262v299h-207v-645h-160zM608 338q0 -98 41 -152.5t129 -54.5q86 0 128 54.5t42 152.5v758q0 98 -42 152.5t-128 54.5q-88 0 -129 -54.5 t-41 -152.5v-758z" />
<glyph unicode="&#x44f;" horiz-adv-x="806" d="M55 0q18 37 23.5 81t5.5 91v223q0 117 40 194t138 105q-176 57 -176 295v117q0 160 75 244t245 84h319v-1434h-160v612h-112q-100 0 -154.5 -46t-54.5 -167v-225q0 -72 -6.5 -107.5t-20.5 -66.5h-162zM244 954q0 -117 53 -156.5t147 -39.5h121v530h-155q-90 0 -128 -49 t-38 -147v-138z" />
<glyph unicode="&#x451;" horiz-adv-x="737" d="M82 0v1434h590v-146h-430v-489h350v-144h-350v-510h430v-145h-590zM178 1518v184h139v-184h-139zM432 1518v184h141v-184h-141z" />
<glyph unicode="&#x2000;" horiz-adv-x="908" />
<glyph unicode="&#x2001;" horiz-adv-x="1817" />
<glyph unicode="&#x2002;" horiz-adv-x="908" />
<glyph unicode="&#x2003;" horiz-adv-x="1817" />
<glyph unicode="&#x2004;" horiz-adv-x="605" />
<glyph unicode="&#x2005;" horiz-adv-x="454" />
<glyph unicode="&#x2006;" horiz-adv-x="302" />
<glyph unicode="&#x2007;" horiz-adv-x="302" />
<glyph unicode="&#x2008;" horiz-adv-x="227" />
<glyph unicode="&#x2009;" horiz-adv-x="363" />
<glyph unicode="&#x200a;" horiz-adv-x="100" />
<glyph unicode="&#x2010;" horiz-adv-x="542" d="M76 645v143h391v-143h-391z" />
<glyph unicode="&#x2011;" horiz-adv-x="542" d="M76 645v143h391v-143h-391z" />
<glyph unicode="&#x2012;" horiz-adv-x="542" d="M76 645v143h391v-143h-391z" />
<glyph unicode="&#x2013;" horiz-adv-x="937" d="M27 651v131h884v-131h-884z" />
<glyph unicode="&#x2014;" horiz-adv-x="1705" d="M27 651v131h1652v-131h-1652z" />
<glyph unicode="&#x2018;" horiz-adv-x="327" d="M82 1055v184l78 195h67l-51 -181h60v-198h-154z" />
<glyph unicode="&#x2019;" horiz-adv-x="327" d="M92 1235v199h154v-183l-80 -196h-66l52 180h-60z" />
<glyph unicode="&#x201a;" horiz-adv-x="327" d="M92 0v199h154v-185l-80 -194h-66l52 180h-60z" />
<glyph unicode="&#x201c;" horiz-adv-x="555" d="M82 1055v184l78 195h67l-51 -181h60v-198h-154zM311 1055v184l78 195h66l-49 -181h57v-198h-152z" />
<glyph unicode="&#x201d;" horiz-adv-x="555" d="M82 1235v199h151v-185l-77 -194h-66l49 180h-57zM309 1235v199h154v-185l-78 -194h-68l52 180h-60z" />
<glyph unicode="&#x201e;" horiz-adv-x="561" d="M92 0v199h154v-185l-80 -194h-66l52 180h-60zM326 0v199h153v-185l-78 -194h-67l51 180h-59z" />
<glyph unicode="&#x2020;" horiz-adv-x="806" d="M61 926v125h277v383h131v-383h279v-125h-279v-1059h-131v1059h-277z" />
<glyph unicode="&#x2021;" horiz-adv-x="806" d="M61 252v125h277v549h-277v125h277v383h131v-383h279v-125h-279v-549h279v-125h-279v-385h-131v385h-277z" />
<glyph unicode="&#x2022;" horiz-adv-x="671" d="M121 717q0 45 16.5 84t46 67.5t68.5 46t84 17.5t84 -17.5t67.5 -46t46 -67.5t17.5 -84t-17.5 -84t-46 -68.5t-67.5 -46t-84 -16.5t-84 16.5t-68.5 46t-46 68.5t-16.5 84z" />
<glyph unicode="&#x2026;" horiz-adv-x="776" d="M82 0v199h154v-199h-154zM311 0v199h154v-199h-154zM541 0v199h153v-199h-153z" />
<glyph unicode="&#x202f;" horiz-adv-x="363" />
<glyph unicode="&#x2030;" horiz-adv-x="1775" d="M74 758v452q0 104 50.5 168t154.5 64t154 -63.5t50 -168.5v-452q0 -104 -50 -168t-154 -64t-154.5 63.5t-50.5 168.5zM176 750q0 -59 23.5 -94t79.5 -35q53 0 77.5 34.5t24.5 94.5v467q0 59 -24.5 95t-77.5 36q-55 0 -79 -36t-24 -95v-467zM295 0l565 1434h96l-565 -1434 h-96zM778 225v451q0 104 50.5 166.5t154.5 62.5q106 0 155.5 -62.5t49.5 -166.5v-451q0 -104 -49 -167.5t-156 -63.5q-104 0 -154.5 63.5t-50.5 167.5zM881 217q0 -59 24.5 -95t77.5 -36t77.5 36t24.5 95v465q0 59 -24.5 94t-77.5 35t-77.5 -35t-24.5 -94v-465zM1292 225 v451q0 104 50.5 166.5t154.5 62.5q106 0 155.5 -62.5t49.5 -166.5v-451q0 -104 -49 -167.5t-156 -63.5q-104 0 -154.5 63.5t-50.5 167.5zM1397 217q0 -59 23.5 -95t76.5 -36t77.5 36t24.5 95v465q0 59 -24.5 94t-77.5 35t-76.5 -35t-23.5 -94v-465z" />
<glyph unicode="&#x2039;" horiz-adv-x="374" d="M49 719l127 526h152l-127 -526l127 -549h-152z" />
<glyph unicode="&#x203a;" horiz-adv-x="374" d="M49 172l125 547l-125 526h150l129 -526l-129 -547h-150z" />
<glyph unicode="&#x2044;" horiz-adv-x="335" d="M-162 0l565 1434h97l-566 -1434h-96z" />
<glyph unicode="&#x205f;" horiz-adv-x="454" />
<glyph unicode="&#x20ac;" horiz-adv-x="813" d="M27 567v84h90v142h-90v81h90v213q0 82 18.5 149t57 114t98 72.5t141.5 25.5t141.5 -25.5t98.5 -72.5t57.5 -114t18.5 -149v-92h-150v101q0 96 -38 151.5t-124 55.5t-124 -55.5t-38 -151.5v-222h357v-81h-357v-142h357v-84h-357v-229q0 -96 38 -151.5t124 -55.5t124 55.5 t38 151.5v111h150v-103q0 -162 -76 -261t-240 -99t-239.5 99t-75.5 261v221h-90z" />
<glyph unicode="&#x2122;" horiz-adv-x="1193" d="M25 1339v95h436v-95h-166v-634h-102v634h-168zM553 705v729h143l150 -570l143 570h144v-729h-99v575l-141 -571h-98l-150 567v-571h-92z" />
<glyph unicode="&#x221e;" horiz-adv-x="1193" d="M80 733q0 127 72.5 191.5t199.5 64.5h25q80 0 140.5 -25.5t88.5 -89.5q27 61 84.5 88t138.5 27h27q127 0 198.5 -64.5t71.5 -191.5t-71.5 -190.5t-198.5 -63.5h-27q-82 0 -139 26.5t-84 86.5q-29 -63 -89 -88t-140 -25h-25q-127 0 -199.5 63.5t-72.5 190.5zM193 733 q0 -66 36.5 -103.5t124.5 -39.5h37q82 0 121 38t39 105q0 68 -39 107t-121 39h-37q-88 0 -124.5 -40t-36.5 -106zM655 733q0 -66 34 -103.5t124 -39.5h37q82 0 123 38t41 105q0 68 -41 107t-123 39h-37q-90 0 -124 -40t-34 -106z" />
<glyph unicode="&#x2248;" horiz-adv-x="811" d="M37 510q59 90 110.5 126t108.5 36q43 0 84 -19.5t79 -43t74.5 -43t71.5 -19.5q39 0 65.5 28.5t65.5 83.5l78 -75q-57 -88 -105 -123t-106 -35q-43 0 -82 19.5t-76.5 43t-74.5 43t-74 19.5q-41 0 -70.5 -27.5t-70.5 -85.5zM37 844q59 90 110.5 126t108.5 38q43 0 84 -20.5 t79 -44t74.5 -43t71.5 -19.5q39 2 65.5 29.5t65.5 84.5l78 -77q-57 -88 -105 -122t-106 -36q-43 0 -82 19.5t-76.5 43t-74.5 43t-74 19.5q-41 0 -70.5 -27t-70.5 -86z" />
<glyph unicode="&#x25fc;" horiz-adv-x="1433" d="M0 0v1434h1434v-1434h-1434z" />
</font>
</defs>
</svg>
